<svg width="16" height="15" viewBox="0 0 16 15" fill="none" xmlns="http://www.w3.org/2000/svg">
<path d="M1 7.88242V4.89419C1 4.33414 1 4.05411 1.10899 3.8402C1.20487 3.65204 1.35785 3.49906 1.54601 3.40318C1.75992 3.29419 2.03995 3.29419 2.6 3.29419H3.29412" stroke="#8B8B8B" stroke-width="2"/>
<path d="M14.7646 7.88242V4.89419C14.7646 4.33414 14.7646 4.05411 14.6557 3.8402C14.5598 3.65204 14.4068 3.49906 14.2186 3.40318C14.0047 3.29419 13.7247 3.29419 13.1646 3.29419H12.4705" stroke="#8B8B8B" stroke-width="2"/>
<path d="M2.5293 1.76465L4.82341 3.29406L2.5293 4.82347V1.76465Z" fill="#8B8B8B"/>
<path d="M13.2354 1.76465L10.9412 3.29406L13.2354 4.82347V1.76465Z" fill="#8B8B8B"/>
<path d="M10.1765 10.9413C10.1765 10.4477 10.1765 10.2009 10.2617 10.0079C10.3624 9.77994 10.5446 9.59775 10.7726 9.49707C10.9656 9.41187 11.2124 9.41187 11.7059 9.41187V9.41187L12.4706 10.1766H13.1647C13.7248 10.1766 14.0048 10.1766 14.2187 10.2856C14.4069 10.3814 14.5599 10.5344 14.6558 10.7226C14.7647 10.9365 14.7647 11.2165 14.7647 11.7766V12.4001C14.7647 12.9602 14.7647 13.2402 14.6558 13.4541C14.5599 13.6423 14.4069 13.7952 14.2187 13.8911C14.0048 14.0001 13.7248 14.0001 13.1647 14.0001H11.7765C11.2165 14.0001 10.9364 14.0001 10.7225 13.8911C10.5344 13.7952 10.3814 13.6423 10.2855 13.4541C10.1765 13.2402 10.1765 12.9602 10.1765 12.4001V10.9413Z" stroke="#8B8B8B" stroke-width="2" stroke-linejoin="round"/>
<path d="M1 10.9413C1 10.4477 1 10.2009 1.08521 10.0079C1.18588 9.77994 1.36807 9.59775 1.59608 9.49707C1.78905 9.41187 2.03584 9.41187 2.52941 9.41187V9.41187L3.29412 10.1766H3.98824C4.54829 10.1766 4.82831 10.1766 5.04223 10.2856C5.23039 10.3814 5.38337 10.5344 5.47924 10.7226C5.58824 10.9365 5.58824 11.2165 5.58824 11.7766V12.4001C5.58824 12.9602 5.58824 13.2402 5.47924 13.4541C5.38337 13.6423 5.23039 13.7952 5.04223 13.8911C4.82831 14.0001 4.54829 14.0001 3.98824 14.0001H2.6C2.03995 14.0001 1.75992 14.0001 1.54601 13.8911C1.35785 13.7952 1.20487 13.6423 1.10899 13.4541C1 13.2402 1 12.9602 1 12.4001V10.9413Z" stroke="#8B8B8B" stroke-width="2" stroke-linejoin="round"/>
<path d="M5.58813 2.52941C5.58813 2.03584 5.58813 1.78905 5.67334 1.59608C5.77402 1.36807 5.95621 1.18588 6.18421 1.08521C6.37719 1 6.62397 1 7.11755 1V1L7.88225 1.76471H8.57637C9.13642 1.76471 9.41645 1.76471 9.63036 1.8737C9.81852 1.96957 9.9715 2.12255 10.0674 2.31072C10.1764 2.52463 10.1764 2.80465 10.1764 3.36471V3.98824C10.1764 4.54829 10.1764 4.82831 10.0674 5.04223C9.9715 5.23039 9.81852 5.38337 9.63036 5.47924C9.41645 5.58824 9.13642 5.58824 8.57637 5.58824H7.18813C6.62808 5.58824 6.34806 5.58824 6.13414 5.47924C5.94598 5.38337 5.793 5.23039 5.69713 5.04223C5.58813 4.82831 5.58813 4.54829 5.58813 3.98824V2.52941Z" stroke="#8B8B8B" stroke-width="2" stroke-linejoin="round"/>
</svg>
